<?xml version="1.0" encoding="UTF-8"?>
<svg xmlns="http://www.w3.org/2000/svg" viewBox="0 0 1412.09 792.07">
  <g id="S3">
    <path d="M847.97,577.06c.87,3,4.09,4.65,7.03,3.58,2.94-1.07,4.36-4.4,3.1-7.26-.1-.22-.21-.44-.34-.65-12.09-22.18-19.38-46.66-21.4-71.84-.02-.25-.04-.51-.05-.76-.27-3.36-1.06-6.44-2.43-9.52-2.05-4.64-5.38-8.98-9.69-11.82-4.25-2.8-9.71-4.2-14.71-1.99-4.99,2.21-7.63,7.19-8.42,12.22-.8,5.09.17,10.48,2.22,15.13,1.35,3.08,3.11,5.74,5.41,8.2.18.18.35.37.53.55,17.27,18.44,30.47,40.3,38.75,64.17Z" fill="#fff"/>
  </g>
  <g id="S2">
    <path d="M1019.36,126.3c-14.42-10.83-28.84-21.67-43.27-32.5-1.62-1.22-1.92-3.53-.66-5.12,1.26-1.59,3.58-1.82,5.13-.52,13.53,11.37,27.06,22.74,40.59,34.12.28.23.56.47.83.7,7.1,5.97,14.66,10.77,23.08,14.67,3.23,1.5,6.49,2.39,10.03,2.75,3.18.32,6.06,2.04,7.85,4.69,3.77,5.57,7.54,11.13,11.32,16.7,1.1,1.62,1.02,3.77-.2,5.31-1.22,1.53-3.29,2.1-5.12,1.39-6.27-2.42-12.55-4.84-18.82-7.26-2.98-1.15-5.3-3.56-6.34-6.59-1.15-3.37-2.75-6.34-4.94-9.15-5.69-7.32-12.08-13.6-19.5-19.17Z" fill="#fff"/>
  </g>
  <g id="S1">
    <path d="M520.42,379.98c-23.34,6.19-46.69,12.37-70.03,18.56-.15.04-.3.08-.45.12-4.77,1.26-9.83.81-14.3-1.29-2.15-1.13-4.36-1.98-6.71-2.58-12.07-3.1-24.83,1.36-32.34,11.32-2.9,3.84-1.7,9.36,2.52,11.66,13.11,7.13,29.45,3.87,38.81-7.76,3.22-3.99,7.79-6.67,12.84-7.53,24.01-4.05,48.01-8.1,72.02-12.16,3.14-.38,5.26-3.4,4.56-6.49-.71-3.09-3.93-4.88-6.93-3.86Z" fill="#fff"/>
  </g>
  <g id="F3">
    <path d="M1255.34,721.36c1.66,3.29,5.78,4.47,8.94,2.56,3.16-1.91,4.02-6.1,1.88-9.1-9.6-13.45-19.2-26.9-28.8-40.35-1.03-1.44-1.68-2.94-2.04-4.67-3.23-15.72-11.86-29.81-24.4-39.82,4.75,8.71,9.5,17.42,14.26,26.12.42.77.16,1.74-.59,2.2-.75.46-1.73.24-2.22-.49-5.51-8.25-11.01-16.5-16.52-24.76,3.04,15.76,11.51,29.95,23.93,40.1,1.37,1.12,2.39,2.39,3.19,3.97,7.46,14.75,14.91,29.49,22.37,44.24Z" fill="#fff"/>
  </g>
  <g id="F2">
    <path d="M273.37,603.96c-1.06,4.7,2.45,9.18,7.26,9.28s8.51-4.24,7.64-8.97c-1.15-6.28-2.3-12.56-3.45-18.85-1.95-10.56-2.36-20.87-1.24-31.55.82-8.04,2.47-15.77,4.99-23.45,2-8.46,1-17.35-2.84-25.14h-.39c-.04,7.45-.08,14.89-.11,22.34,0,1.25-1.85,1.34-1.98.09-.76-7.48-1.51-14.95-2.27-22.43h-.39c-.76,7.48-1.51,14.95-2.27,22.43-.13,1.25-1.97,1.16-1.98-.09-.04-7.45-.08-14.89-.11-22.34h-.39c-.1,2.03-1.11,3.9-2.75,5.09-1.66,6.55-1.7,13.4-.12,19.96,5.85,17.76,7.15,36.7,3.78,55.09l-3.39,18.54Z" fill="#fff"/>
  </g>
  <g id="F1">
    <path d="M1315.43,452.23c10.24-7.45,20.48-14.89,30.73-22.34-.04-.05-.07-.1-.11-.15-13.07,7.8-26.14,15.61-39.21,23.41-2.23,1.48-3.75,3.83-4.19,6.47-.41,3.49-2.44,6.59-5.48,8.36-18.33,11.8-36.67,23.61-55,35.41-3.51,2.26-4.39,7-1.93,10.37s7.25,3.97,10.46,1.31c16.81-13.88,33.63-27.77,50.44-41.65,2.61-2.35,6.17-3.35,9.63-2.68,2.65.39,5.35-.35,7.44-2.03,11.4-10.08,22.81-20.17,34.21-30.25-.04-.05-.07-.1-.11-.15l-30.62,22.49c-.37.27-.88.2-1.16-.16-.28-.36-.22-.88.14-1.17,9.89-7.95,19.78-15.9,29.67-23.85-.04-.05-.07-.1-.11-.15-10.4,7.24-20.8,14.48-31.2,21.73-.9.63-1.86-.69-.99-1.36,10.06-7.71,20.12-15.42,30.18-23.13-.04-.05-.07-.1-.11-.15-10.58,7.01-21.16,14.02-31.73,21.03-.38.25-.89.15-1.15-.22-.26-.38-.17-.89.2-1.16Z" fill="#fff"/>
  </g>
  <g id="K3">
    <path d="M1045.98,288.19c-2.58-.7-5.84.3-7.58,2.32-1.87,1.9-2.61,5.23-1.71,7.74.28.84.72,1.62,1.3,2.34.9,1.13,1.99,1.99,3.25,2.59l3.42,1.17,5.36,1.4,6.93,2.06,6.84,2.26,6.76,2.44,6.68,2.62,6.65,2.69,6.63,2.74,6.55,2.93,6.38,3.32,6.11,3.89,6.14,3.84,4.74,2.59c5.9,2.92,12.09,5.31,18.42,7.1l3.65.63,7.28,1.16c2.11-.03,4.37.92,5.83,2.46,1.49,1.49,2.38,3.78,2.29,5.89l1.11,7.61,3.87-8.21c.08-.27.37-.49.65-.51.28-.04.61.12.75.37l.93,1.96,1.76,4.59.77,2.64.36-1.05c.51-1.54.86-3.13,1.02-4.77.22-2.13.17-4.24-.14-6.34l-1-4.36-.61-1.6-1.76-2.81c-1.25-1.55-2.68-2.89-4.3-4.03-2-1.4-4.09-2.63-6.28-3.67l-6.45-3.16-6.39-3.28-6.44-3.17-6.48-3.07-6.6-2.81-3.59-1.64-.32-.18-1.48,2.59-1.16,1.45c-.67,1.06-1.87,1.87-3.1,2.1-1.22.26-2.65-.03-3.67-.75l-3.36-1.34-6.54-2.84-6.6-2.83c-2.21-.94-4.34-2.03-6.39-3.26l-6.28-3.52-6.31-3.46-6.21-3.68-6.16-3.81-6.07-4.01-4.51-3.07-3.19-1.66-.7-.24-1.03-.31Z" fill="#fff"/>
  </g>
  <g id="K2">
    <path d="M423.35,228.3c-1,16.55-.14,32.69,2.62,49.04.17,1,1.04,1.74,2.06,1.74s1.89-.73,2.06-1.74c4.03-23.88,4.02-48.26-.02-72.14-3-21.99-.33-44.38,7.77-65.05.73-1.9.21-4.17-1.58-5.31-1.67-1.07-3.86-.83-5.26.56-9.92,10.11-14.11,24.52-11.16,38.37.05.21.09.42.14.63,3.71,17.71,4.85,35.87,3.38,53.9Z" fill="#fff"/>
  </g>
  <g id="K1">
    <path d="M1305.47,363.17c.03,1.64,1.38,2.96,3.02,2.94s2.97-1.35,2.97-2.99c0-43.71-.01-87.42-.02-131.12,0-.17-.21-.25-.32-.11-12.28,15.33-15.42,36.06-8.23,54.34.05.14.11.28.16.41.78,2.15,1.18,4.27,1.22,6.56.4,23.32.8,46.65,1.2,69.97Z" fill="#fff"/>
  </g>
</svg>